<?xml version="1.0" encoding="UTF-8" standalone="no"?>
<svg width="440px" height="170px" viewBox="0 0 440 170" version="1.1" xmlns="http://www.w3.org/2000/svg" xmlns:xlink="http://www.w3.org/1999/xlink">
    <!-- Generator: Sketch 3.7 (28169) - http://www.bohemiancoding.com/sketch -->
    <title>White</title>
    <desc>Created with Sketch.</desc>
    <defs></defs>
    <g id="Page-1" stroke="none" stroke-width="1" fill="none" fill-rule="evenodd">
        <g id="White">
            <path d="M333.708536,163.084417 L334.084,163.3799 L405.027,73.2349 L404.710596,72.9859074 C408.414319,69.5372208 410.7308,64.6181863 410.7308,59.1579 C410.7308,48.7269 402.2738,40.2699 391.8418,40.2699 C384.774007,40.2699 378.612781,44.1518395 375.373968,49.89956 L375.166,49.7359 L321.383007,118.075471 L290.704572,80.0172616 L326.84956,32.9790864 C330.612317,29.5262205 332.9711,24.5676887 332.9711,19.0583 C332.9711,8.6263 324.5141,0.1713 314.0821,0.1713 C308.288305,0.1713 303.103899,2.77878279 299.638834,6.88431123 L299.2229,6.5647 L266.169242,49.5798965 L232.9958,8.4265 L203.4098,32.2745 L242.34872,80.5793224 L199.197267,136.735535 C195.726192,140.160467 193.5749,144.919311 193.5749,150.1803 C193.5749,160.6133 202.0319,169.0703 212.4649,169.0703 C219.152629,169.0703 225.02867,165.59463 228.385201,160.350848 L228.7559,160.6357 L266.884286,111.01638 L304.8408,158.1025 L304.878133,158.072405 C308.118061,163.816686 314.277036,167.6953 321.3418,167.6953 C326.071337,167.6953 330.394927,165.957025 333.708536,163.084417 Z" id="Fill-33" fill="#FEFEFE"></path>
            <path d="M17.4421904,148.074822 L4.5076,137.6764 L82.6047537,40.53 L32.953,40.53 L32.953,40.3386775 C32.125075,40.4495559 31.2801717,40.5068 30.4219,40.5068 C19.9899,40.5068 11.5329,32.0498 11.5329,21.6178 C11.5329,11.1868 19.9899,2.7298 30.4219,2.7298 C31.2801717,2.7298 32.125075,2.78704411 32.953,2.89792198 L32.953,2.53 L121.633,2.53 L121.633,3.02971288 C132.033496,3.06664586 140.4535,11.5094428 140.4535,21.9186 C140.4535,25.8433331 139.25648,29.4885209 137.207613,32.5089905 L137.5726,32.8024 L58.0230843,131.756187 L106.737947,131.818747 L169.737064,51.7489876 C172.77612,45.3869156 179.27056,40.9915 186.792,40.9915 C197.224,40.9915 205.681,49.4485 205.681,59.8805 C205.681,65.5457825 203.187318,70.6284097 199.237832,74.0906643 L131.066727,160.733846 C127.84966,166.01469 122.114491,169.592721 115.529339,169.800081 L115.5293,169.8301 L17.4143,169.7041 L17.4421904,148.074822 Z" id="Fill-39" fill="#FEFEFE"></path>
            <path d="M217.292,37.9473 C227.724,37.9473 236.181,29.4903 236.181,19.0583 C236.181,8.6263 227.724,0.1713 217.292,0.1713 C206.859,0.1713 198.402,8.6263 198.402,19.0583 C198.402,29.4903 206.859,37.9473 217.292,37.9473" id="Fill-42" fill="#70BF4B"></path>
            <path d="M19.3418,169.0703 C29.7738,169.0703 38.2308,160.6133 38.2308,150.1803 C38.2308,139.7493 29.7738,131.2923 19.3418,131.2923 C8.9098,131.2923 0.4528,139.7493 0.4528,150.1803 C0.4528,160.6133 8.9098,169.0703 19.3418,169.0703" id="Fill-48" fill="#ED1C24"></path>
            <path d="M421.4619,39.4268 C431.8939,39.4268 440.3509,30.9698 440.3509,20.5378 C440.3509,10.1068 431.8939,1.6498 421.4619,1.6498 C411.0299,1.6498 402.5729,10.1068 402.5729,20.5378 C402.5729,30.9698 411.0299,39.4268 421.4619,39.4268" id="Fill-49" fill="#4052A3"></path>
        </g>
    </g>
</svg>